<svg width="365" height="90" viewBox="0 0 365 90" fill="none" xmlns="http://www.w3.org/2000/svg">
<g clip-path="url(#clip0_1653_32585)">
<path d="M88.1637 53.0278C87.1359 54.3768 85.6905 53.6381 84.502 53.6381C75.8297 53.6381 67.1573 53.6381 58.4849 53.6381C57.2643 53.6381 55.2729 52.7388 55.2729 55.1799C55.2729 57.621 55.5941 59.2912 58.4849 59.3554C61.6969 59.3554 65.1337 59.7087 68.4742 59.5481C71.8147 59.3875 71.2365 61.122 71.2044 63.0813C71.1723 65.0407 71.4613 66.8072 68.4742 66.5824C63.8153 66.7058 59.1539 66.4588 54.5342 65.8437C52.4689 65.5722 50.5587 64.602 49.1212 63.0944C47.6838 61.5868 46.8056 59.6326 46.6326 57.5567C45.8777 52.413 45.8777 47.1866 46.6326 42.0428C46.7296 40.154 47.4981 38.362 48.7997 36.9898C50.1012 35.6176 51.8501 34.7554 53.7312 34.5588C63.107 33.2418 72.6209 33.2418 81.9967 34.5588C83.5571 34.6261 85.0469 35.2277 86.2165 36.2628C87.386 37.2978 88.1643 38.7035 88.4207 40.2441C88.4207 40.2441 88.1316 40.4048 88.1637 40.469C88.2474 40.6574 88.344 40.8398 88.4528 41.015V52.2248C88.4528 52.2248 88.1316 52.3854 88.1637 52.4497C88.1377 52.6415 88.1377 52.8359 88.1637 53.0278ZM67.3821 47.696C70.5941 47.696 73.8061 47.696 77.0181 47.696C78.5277 47.696 79.7162 47.4711 79.4913 45.576C79.2665 43.681 80.3265 41.2398 77.532 41.1435C71.108 40.8865 64.4913 40.9186 57.971 41.1435C55.4335 41.1435 55.2087 43.7773 55.1444 45.7688C55.1444 48.4026 57.2643 47.5995 58.6455 47.6317C61.5042 47.7601 64.4592 47.696 67.3821 47.696Z" fill="white"/>
<path d="M135.224 66.5192C131.627 66.5192 129.09 66.5192 126.616 66.5192C125.361 66.608 124.101 66.4276 122.921 65.99C121.741 65.5524 120.669 64.8676 119.775 63.9817C114.892 59.9025 109.946 55.9196 104.614 51.5835C104.002 55.4818 103.862 59.4396 104.197 63.3714C104.197 65.8446 103.458 66.8082 100.985 66.5834C99.9177 66.4549 98.8394 66.4549 97.7726 66.5834C95.5884 66.8082 94.5606 66.1017 94.7533 63.7248C94.7533 51.198 94.7533 38.6498 94.7533 26.0802C94.7533 23.7355 95.5563 22.8682 97.7405 23.2537C98.6685 23.366 99.6068 23.366 100.535 23.2537C103.233 22.8682 104.293 23.7997 104.164 26.6905C103.94 32.44 104.164 38.1894 104.164 43.9068V48.7569C108.527 45.5513 112.719 42.1205 116.723 38.4785C121.606 33.5963 127.259 33.0182 134.197 34.1424C128.351 38.7034 122.955 43.1359 117.334 47.2473C114.957 48.9817 114.411 49.849 117.141 51.9047C123.051 56.4336 128.672 61.3158 135.224 66.5192Z" fill="white"/>
<path d="M156.972 45.0623C156.972 58.8096 156.779 72.5248 156.972 86.2721C156.972 90.3513 154.916 89.8374 152.314 89.9659C149.712 90.0943 148.139 89.7411 148.139 86.24C148.331 59.0345 148.139 31.8609 148.139 4.65538C148.139 3.43482 147.304 1.44347 148.942 1.12227C151.126 0.141249 153.561 -0.139262 155.912 0.319269C157.421 0.865307 156.715 2.40706 156.715 3.53126C156.907 17.3642 156.993 31.2079 156.972 45.0623Z" fill="white"/>
<path d="M43.3998 26.5941V32.2151L43.0786 32.3756C43.1209 32.5818 43.1746 32.7856 43.2392 32.9859C39.1599 34.1743 34.9844 33.2108 30.873 33.532L26.5689 33.7889C26.5689 33.7889 26.2478 33.9495 26.2478 34.0138C26.3199 34.2122 26.4058 34.4054 26.5047 34.5919C26.5047 44.2279 26.5047 54.0566 26.6653 63.7889C26.6653 66.0694 25.9908 66.7439 23.7424 66.6797C15.8409 66.4548 17.3184 67.5469 17.3184 60.4805C17.3184 52.6112 17.3184 44.7418 17.3184 36.8724C17.3184 34.2707 16.5475 33.3392 13.9137 33.4677C10.1878 33.6604 6.42975 33.4677 2.73596 33.4677C-0.957835 33.4677 0.00575656 31.3799 0.0699964 29.5491C0.134236 27.7182 -0.989965 25.4698 2.57535 25.5341C15.9051 25.6947 29.2349 25.5341 42.5647 25.6947L43.3998 26.5941Z" fill="white"/>
<path d="M88.1992 41.015C88.0905 40.8398 87.9939 40.6574 87.9102 40.469C87.9102 40.469 88.0708 40.3084 88.1671 40.2441C88.2272 40.3629 88.2612 40.4931 88.2668 40.626C88.2723 40.759 88.2493 40.8917 88.1992 41.015Z" fill="white"/>
<path d="M43.2348 32.9857C43.1702 32.7853 43.1166 32.5816 43.0742 32.3754L43.3954 32.2148L43.2348 32.9857Z" fill="white"/>
<path d="M43.3889 26.5947L42.5859 25.7917C43.0356 25.7596 43.4211 26.0166 43.3889 26.5947Z" fill="white"/>
<path d="M88.1702 53.0286C88.0677 52.8477 87.9919 52.653 87.9453 52.4504C87.9453 52.4504 88.1381 52.4504 88.2344 52.2256L88.1702 53.0286Z" fill="white"/>
<path d="M26.4992 34.5923C26.4002 34.4058 26.3144 34.2126 26.2422 34.0142C26.2422 34.0142 26.467 34.0141 26.5634 33.7893L26.4992 34.5923Z" fill="white"/>
<path d="M169.113 66.6796L183.31 27.7502H192.143L206.308 66.6796H198.085L187.582 36.5832L177.143 66.6796H169.113ZM175.345 57.9429L177.4 51.8723H197.411L199.434 57.9429H175.345Z" fill="#5E5E5E"/>
<path d="M206.082 45.1584V38.7344H223.619V45.1584H206.082ZM209.872 66.6787V36.2933C209.788 34.3354 210.208 32.3888 211.093 30.6401C211.864 29.2669 213.075 28.1924 214.53 27.5888C216.178 26.91 217.95 26.5818 219.733 26.6251H223.234V33.2419H220.954C220.05 33.1665 219.15 33.4171 218.416 33.9485C218.135 34.2656 217.925 34.6383 217.797 35.0423C217.67 35.4463 217.629 35.8725 217.677 36.2933V66.6787H209.872Z" fill="#5E5E5E"/>
<path d="M228.442 66.6799V45.1597H224.684V38.7357H228.442V36.3909C228.351 34.4288 228.783 32.4778 229.694 30.7377C230.446 29.3603 231.648 28.283 233.099 27.6864C234.748 27.0076 236.52 26.6794 238.303 26.7228H241.514V33.3396H239.555C238.672 33.2683 237.794 33.5193 237.082 34.0462C236.543 34.6907 236.277 35.5209 236.343 36.3587V38.7357H254.009V66.7763H246.236V45.256H236.343V66.7763L228.442 66.6799ZM250.09 34.9776C248.83 35.03 247.599 34.5926 246.654 33.757C246.202 33.3573 245.846 32.8611 245.613 32.305C245.379 31.749 245.274 31.1474 245.305 30.545C245.291 29.9685 245.405 29.3961 245.638 28.8687C245.871 28.3412 246.218 27.8717 246.654 27.4937C247.626 26.7062 248.839 26.2764 250.09 26.2764C251.342 26.2764 252.555 26.7062 253.527 27.4937C253.963 27.8717 254.31 28.3412 254.543 28.8687C254.776 29.3961 254.89 29.9685 254.876 30.545C254.907 31.1474 254.802 31.749 254.568 32.305C254.335 32.8611 253.979 33.3573 253.527 33.757C252.582 34.5926 251.351 35.03 250.09 34.9776Z" fill="#5E5E5E"/>
<path d="M259.211 66.679V26.6255H266.984V66.679H259.211Z" fill="#5E5E5E"/>
<path d="M276.1 35.0416C274.835 35.0921 273.6 34.642 272.664 33.7889C272.214 33.3877 271.859 32.8912 271.626 32.3355C271.392 31.7798 271.286 31.179 271.315 30.5769C271.281 29.9743 271.386 29.3721 271.619 28.8156C271.853 28.2592 272.21 27.7631 272.664 27.3649C273.603 26.5204 274.839 26.0816 276.1 26.1443C277.372 26.0835 278.616 26.5215 279.569 27.3649C280.013 27.7691 280.362 28.2669 280.59 28.8225C280.818 29.378 280.919 29.9773 280.886 30.5769C280.914 31.1759 280.811 31.7739 280.584 32.3288C280.356 32.8836 280.01 33.3819 279.569 33.7889C278.621 34.6439 277.376 35.0937 276.1 35.0416ZM272.214 66.6796V38.639H280.019V66.6796H272.214Z" fill="#5E5E5E"/>
<path d="M294.705 67.3554C292.714 67.4233 290.735 67.0274 288.923 66.199C287.51 65.5564 286.331 64.49 285.551 63.1477C284.816 61.8566 284.439 60.393 284.459 58.9078C284.426 57.3239 284.874 55.7672 285.743 54.4431C286.715 53.0441 288.095 51.9786 289.694 51.3918C291.826 50.5815 294.096 50.1995 296.375 50.2675H303.217C303.243 49.1745 303.069 48.0859 302.703 47.0555C302.385 46.2316 301.796 45.5405 301.033 45.0962C300.093 44.6046 299.04 44.3718 297.981 44.4217C296.763 44.3863 295.56 44.6983 294.512 45.321C294.049 45.6148 293.654 46.005 293.355 46.4651C293.055 46.9251 292.859 47.4442 292.778 47.987H285.23C285.403 46.0971 286.104 44.2939 287.253 42.7835C288.415 41.2596 289.954 40.0642 291.718 39.3146C293.745 38.4412 295.935 38.014 298.142 38.062C300.504 38.0088 302.849 38.469 305.015 39.411C306.854 40.2213 308.416 41.5495 309.512 43.2333C310.632 45.1024 311.19 47.2546 311.118 49.4324V66.7771H304.534L303.666 62.5374C303.281 63.2758 302.795 63.9569 302.221 64.5609C301.646 65.1583 300.986 65.6669 300.262 66.0705C299.492 66.5252 298.658 66.861 297.788 67.0663C296.779 67.3065 295.741 67.4038 294.705 67.3554ZM296.568 61.3489C297.427 61.3629 298.28 61.1987 299.073 60.8671C299.796 60.5614 300.443 60.101 300.968 59.5181C301.499 58.9027 301.933 58.2094 302.253 57.4624C302.587 56.6717 302.814 55.8399 302.928 54.9892H297.307C296.41 54.9551 295.515 55.097 294.673 55.4067C294.042 55.6045 293.498 56.0126 293.131 56.563C292.814 57.0742 292.647 57.664 292.649 58.2654C292.632 58.8687 292.8 59.4628 293.131 59.9677C293.47 60.456 293.953 60.8266 294.512 61.0277C295.173 61.2562 295.869 61.365 296.568 61.3489Z" fill="#5E5E5E"/>
<path d="M328.326 66.6796C326.537 66.7136 324.758 66.3972 323.09 65.7481C321.593 65.1048 320.359 63.9724 319.589 62.5362C318.697 60.6985 318.277 58.667 318.369 56.6261V45.0629H313.551V38.6389H318.369L319.204 30.9302H326.11V38.6389H333.433V45.0629H326.174V56.883C326.119 57.3388 326.162 57.8011 326.3 58.2389C326.439 58.6766 326.669 59.0795 326.977 59.4205C327.767 59.9898 328.738 60.2523 329.707 60.1592H333.401V66.7759L328.326 66.6796Z" fill="#5E5E5E"/>
<path d="M350.425 67.3545C347.813 67.4092 345.233 66.7779 342.941 65.5236C340.794 64.362 339.023 62.6127 337.834 60.4808C336.58 58.1659 335.949 55.5648 336.003 52.9326C335.958 50.254 336.576 47.6059 337.802 45.2238C338.987 43.0338 340.74 41.2033 342.877 39.9241C345.177 38.5906 347.799 37.9129 350.457 37.9647C353.023 37.8996 355.557 38.5443 357.781 39.8277C359.831 40.9967 361.521 42.7082 362.663 44.7742C363.877 46.9627 364.487 49.4348 364.429 51.9369C364.429 52.3223 364.429 52.7078 364.429 53.1574C364.429 53.6071 364.429 54.089 364.429 54.6029H341.721V49.8813H356.688C356.631 48.3287 355.961 46.8621 354.826 45.802C353.674 44.7645 352.167 44.2121 350.618 44.2603C349.412 44.2412 348.223 44.5521 347.181 45.1596C346.123 45.7596 345.271 46.6669 344.74 47.7613C344.089 49.1341 343.781 50.6438 343.84 52.1617V53.7677C343.817 55.0895 344.103 56.3984 344.676 57.59C345.199 58.642 346.013 59.5224 347.02 60.1275C348.088 60.726 349.298 61.0256 350.521 60.9947C351.65 61.0306 352.765 60.7407 353.733 60.1596C354.576 59.6405 355.255 58.8947 355.693 58.0076H363.659C363.125 59.7505 362.228 61.36 361.025 62.7292C359.704 64.2122 358.08 65.393 356.262 66.1912C354.443 66.9893 352.475 67.3861 350.489 67.3545H350.425Z" fill="#5E5E5E"/>
</g>
<defs>
<clipPath id="clip0_1653_32585">
<rect width="364.433" height="90" fill="white"/>
</clipPath>
</defs>
</svg>
