<svg width="361" height="90" viewBox="0 0 361 90" fill="none" xmlns="http://www.w3.org/2000/svg">
<g clip-path="url(#clip0_1653_32623)">
<path d="M87.2092 52.4524C86.1926 53.7867 84.7629 53.056 83.5874 53.056C75.0095 53.056 66.4315 53.056 57.8536 53.056C56.6463 53.056 54.6766 52.1665 54.6766 54.581C54.6766 56.9956 54.9943 58.6476 57.8536 58.7111C61.0306 58.7111 64.43 59.0606 67.7341 58.9017C71.0382 58.7429 70.4664 60.4585 70.4346 62.3965C70.4028 64.3345 70.6887 66.0818 67.7341 65.8594C63.1259 65.9814 58.5153 65.7372 53.9459 65.1288C51.9031 64.8602 50.0137 63.9005 48.5919 62.4094C47.1701 60.9182 46.3014 58.9853 46.1304 56.932C45.3836 51.8443 45.3836 46.6748 46.1304 41.5871C46.2263 39.7188 46.9864 37.9463 48.2738 36.589C49.5612 35.2318 51.2911 34.379 53.1516 34.1846C62.4253 32.8818 71.8356 32.8818 81.1094 34.1846C82.6527 34.251 84.1263 34.8461 85.2832 35.8699C86.44 36.8937 87.2098 38.2841 87.4634 39.8079C87.4634 39.8079 87.1775 39.9668 87.2092 40.0304C87.292 40.2167 87.3876 40.3971 87.4951 40.5704V51.6581C87.4951 51.6581 87.1775 51.817 87.2092 51.8806C87.1835 52.0703 87.1835 52.2626 87.2092 52.4524ZM66.6539 47.1786C69.8309 47.1786 73.008 47.1786 76.185 47.1786C77.6782 47.1786 78.8537 46.9562 78.6313 45.0818C78.4089 43.2074 79.4573 40.7928 76.6933 40.6975C70.3393 40.4433 63.7946 40.4751 57.3452 40.6975C54.8354 40.6975 54.613 43.3027 54.5495 45.2724C54.5495 47.8776 56.6463 47.0833 58.0124 47.115C60.84 47.2421 63.7628 47.1786 66.6539 47.1786Z" fill="white"/>
<path d="M133.748 65.7964C130.19 65.7964 127.68 65.7964 125.234 65.7964C123.992 65.8842 122.746 65.7058 121.579 65.2729C120.412 64.8401 119.351 64.1628 118.467 63.2865C113.638 59.2517 108.745 55.3123 103.471 51.0233C102.866 54.8792 102.727 58.7938 103.058 62.6829C103.058 65.1292 102.328 66.0823 99.8813 65.8599C98.8261 65.7328 97.7595 65.7328 96.7043 65.8599C94.5439 66.0823 93.5273 65.3834 93.7179 63.0324C93.7179 50.642 93.7179 38.2305 93.7179 25.7978C93.7179 23.4785 94.5121 22.6207 96.6725 23.002C97.5905 23.1131 98.5185 23.1131 99.4365 23.002C102.105 22.6207 103.154 23.5421 103.027 26.4014C102.804 32.0883 103.027 37.7751 103.027 43.4302V48.2275C107.341 45.0569 111.487 41.6634 115.449 38.061C120.278 33.2319 125.869 32.6602 132.732 33.7721C126.95 38.2835 121.612 42.6677 116.052 46.7343C113.701 48.4499 113.161 49.3077 115.862 51.341C121.707 55.8206 127.267 60.6496 133.748 65.7964Z" fill="white"/>
<path d="M155.264 44.5735C155.264 58.1711 155.073 71.7369 155.264 85.3346C155.264 89.3694 153.23 88.861 150.657 88.9881C148.084 89.1152 146.527 88.7658 146.527 85.3029C146.718 58.3935 146.527 31.5159 146.527 4.60656C146.527 3.39929 145.701 1.42962 147.321 1.11192C149.482 0.141584 151.89 -0.135872 154.215 0.317665C155.709 0.857758 155.01 2.38273 155.01 3.49468C155.2 17.177 155.285 30.87 155.264 44.5735Z" fill="white"/>
<path d="M42.9184 26.3054V31.8652L42.6007 32.024C42.6426 32.228 42.6957 32.4295 42.7596 32.6276C38.7247 33.8031 34.5946 32.8501 30.5281 33.1678L26.2708 33.4219C26.2708 33.4219 25.9532 33.5808 25.9532 33.6443C26.0245 33.8406 26.1095 34.0316 26.2073 34.2162C26.2073 43.7472 26.2073 53.4689 26.3661 63.0952C26.3661 65.3509 25.699 66.0181 23.4751 65.9545C15.6596 65.7321 17.1211 66.8123 17.1211 59.8229C17.1211 52.0392 17.1211 44.2555 17.1211 36.4718C17.1211 33.8984 16.3585 32.9771 13.7534 33.1042C10.068 33.2948 6.35094 33.1042 2.69737 33.1042C-0.956196 33.1042 -0.00309693 31.0391 0.0604434 29.2282C0.123984 27.4173 -0.987976 25.1934 2.53851 25.2569C15.7231 25.4158 28.9078 25.257 42.0924 25.4159L42.9184 26.3054Z" fill="white"/>
<path d="M87.243 40.5706C87.1354 40.3973 87.0398 40.2169 86.957 40.0305C86.957 40.0305 87.1159 39.8716 87.2112 39.8081C87.2707 39.9256 87.3043 40.0543 87.3098 40.1858C87.3152 40.3174 87.2924 40.4486 87.243 40.5706Z" fill="white"/>
<path d="M42.7643 32.6279C42.7004 32.4298 42.6474 32.2282 42.6055 32.0243L42.9232 31.8655L42.7643 32.6279Z" fill="white"/>
<path d="M42.9271 26.3062L42.1328 25.5119C42.5776 25.4801 42.9588 25.7343 42.9271 26.3062Z" fill="white"/>
<path d="M87.2068 52.4525C87.1054 52.2736 87.0305 52.081 86.9844 51.8806C86.9844 51.8806 87.175 51.8806 87.2703 51.6582L87.2068 52.4525Z" fill="white"/>
<path d="M26.2151 34.2166C26.1172 34.0321 26.0323 33.8411 25.9609 33.6448C25.9609 33.6448 26.1833 33.6448 26.2786 33.4224L26.2151 34.2166Z" fill="white"/>
<path d="M167.266 65.9544L181.308 27.449H190.045L204.055 65.9544H195.922L185.533 36.1858L175.208 65.9544H167.266ZM173.429 57.3129L175.462 51.3084H195.255L197.257 57.3129H173.429Z" fill="white"/>
<path d="M203.836 44.6689V38.3149H221.182V44.6689H203.836ZM207.585 65.9549V35.9003C207.501 33.9638 207.917 32.0384 208.792 30.3088C209.555 28.9505 210.752 27.8877 212.192 27.2907C213.822 26.6193 215.575 26.2946 217.338 26.3375H220.801V32.8822H218.546C217.652 32.8077 216.762 33.0555 216.036 33.5811C215.758 33.8948 215.549 34.2634 215.424 34.663C215.298 35.0626 215.257 35.4841 215.305 35.9003V65.9549H207.585Z" fill="white"/>
<path d="M225.948 65.9546V44.6686H222.23V38.3146H225.948V35.9953C225.858 34.0546 226.285 32.1249 227.187 30.4038C227.93 29.0413 229.119 27.9758 230.554 27.3857C232.185 26.7143 233.938 26.3896 235.701 26.4325H238.878V32.9772H236.94C236.067 32.9067 235.198 33.155 234.494 33.6762C233.96 34.3137 233.698 35.1348 233.763 35.9635V38.3146H251.237V66.0499H243.548V44.7639H233.763V66.0499L225.948 65.9546ZM247.361 34.5975C246.114 34.6493 244.896 34.2166 243.961 33.3902C243.515 32.9948 243.163 32.504 242.932 31.954C242.701 31.404 242.596 30.8089 242.627 30.2132C242.614 29.6429 242.726 29.0768 242.957 28.555C243.188 28.0333 243.531 27.5689 243.961 27.195C244.923 26.4161 246.123 25.991 247.361 25.991C248.598 25.991 249.798 26.4161 250.76 27.195C251.191 27.5689 251.534 28.0333 251.765 28.555C251.995 29.0768 252.108 29.6429 252.094 30.2132C252.125 30.8089 252.021 31.404 251.79 31.954C251.559 32.504 251.207 32.9948 250.76 33.3902C249.825 34.2166 248.607 34.6493 247.361 34.5975Z" fill="white"/>
<path d="M256.383 65.955V26.3376H264.071V65.955H256.383Z" fill="white"/>
<path d="M273.099 34.6615C271.847 34.7114 270.626 34.2662 269.7 33.4224C269.255 33.0256 268.904 32.5345 268.673 31.9848C268.442 31.4352 268.337 30.8409 268.365 30.2454C268.333 29.6493 268.436 29.0537 268.667 28.5033C268.898 27.9529 269.251 27.4622 269.7 27.0683C270.629 26.233 271.851 25.799 273.099 25.8611C274.356 25.8009 275.588 26.2341 276.53 27.0683C276.969 27.4681 277.314 27.9606 277.539 28.5101C277.765 29.0596 277.865 29.6523 277.833 30.2454C277.861 30.8379 277.758 31.4293 277.533 31.9781C277.308 32.527 276.966 33.0199 276.53 33.4224C275.593 34.2681 274.361 34.713 273.099 34.6615ZM269.255 65.955V38.2197H276.975V65.955H269.255Z" fill="white"/>
<path d="M291.488 66.6218C289.519 66.689 287.561 66.2974 285.769 65.478C284.371 64.8424 283.205 63.7877 282.433 62.4599C281.707 61.1829 281.334 59.7353 281.353 58.2662C281.321 56.6996 281.764 55.1599 282.624 53.8501C283.585 52.4663 284.95 51.4125 286.532 50.832C288.64 50.0306 290.886 49.6527 293.14 49.72H299.907C299.933 48.6389 299.76 47.5621 299.399 46.543C299.084 45.7281 298.502 45.0445 297.747 44.605C296.818 44.1187 295.776 43.8885 294.728 43.9378C293.523 43.9029 292.333 44.2114 291.297 44.8274C290.839 45.118 290.448 45.5039 290.152 45.959C289.856 46.414 289.662 46.9274 289.582 47.4644H282.116C282.287 45.595 282.981 43.8114 284.117 42.3175C285.267 40.8102 286.789 39.6278 288.533 38.8864C290.538 38.0224 292.705 37.5999 294.887 37.6474C297.223 37.5948 299.543 38.05 301.686 38.9817C303.504 39.7832 305.05 41.0969 306.134 42.7624C307.242 44.6111 307.793 46.7399 307.722 48.894V66.0498H301.21L300.352 61.8563C299.971 62.5866 299.489 63.2603 298.922 63.8578C298.354 64.4486 297.7 64.9517 296.984 65.3509C296.223 65.8006 295.398 66.1328 294.538 66.3359C293.54 66.5735 292.513 66.6697 291.488 66.6218ZM293.331 60.6808C294.181 60.6945 295.024 60.5322 295.809 60.2041C296.524 59.9018 297.163 59.4464 297.683 58.8699C298.208 58.2612 298.637 57.5754 298.954 56.8365C299.284 56.0544 299.509 55.2318 299.621 54.3902H294.061C293.174 54.3565 292.289 54.4969 291.456 54.8033C290.832 54.9989 290.294 55.4025 289.931 55.947C289.618 56.4526 289.453 57.036 289.455 57.6308C289.438 58.2275 289.604 58.8152 289.931 59.3146C290.266 59.7976 290.744 60.1641 291.297 60.3631C291.951 60.589 292.639 60.6966 293.331 60.6808Z" fill="white"/>
<path d="M324.759 65.9551C322.989 65.9888 321.23 65.6758 319.58 65.0338C318.1 64.3975 316.879 63.2774 316.117 61.8568C315.235 60.0391 314.82 58.0298 314.91 56.0111V44.5738H310.145V38.2198H314.91L315.736 30.595H322.567V38.2198H329.81V44.5738H322.63V56.2652C322.576 56.716 322.618 57.1733 322.755 57.6063C322.892 58.0393 323.12 58.4378 323.424 58.7751C324.206 59.3382 325.166 59.5978 326.125 59.5057H329.778V66.0504L324.759 65.9551Z" fill="white"/>
<path d="M346.612 66.6221C344.028 66.6762 341.476 66.0518 339.209 64.8111C337.086 63.6621 335.334 61.9319 334.158 59.8232C332.918 57.5335 332.293 54.9607 332.347 52.3572C332.302 49.7078 332.914 47.0885 334.126 44.7324C335.299 42.5662 337.032 40.7556 339.146 39.4903C341.421 38.1714 344.014 37.5011 346.643 37.5523C349.182 37.4879 351.688 38.1256 353.887 39.395C355.916 40.5513 357.587 42.2441 358.716 44.2876C359.917 46.4523 360.52 48.8975 360.464 51.3723C360.464 51.7536 360.464 52.1348 360.464 52.5796C360.464 53.0244 360.464 53.501 360.464 54.0093H338.002V49.3391H352.807C352.75 47.8035 352.088 46.3528 350.964 45.3042C349.826 44.278 348.334 43.7317 346.802 43.7793C345.609 43.7604 344.434 44.068 343.403 44.6689C342.356 45.2623 341.514 46.1597 340.988 47.2422C340.345 48.6 340.04 50.0934 340.099 51.5947V53.1833C340.076 54.4906 340.359 55.7853 340.925 56.9639C341.443 58.0044 342.248 58.8752 343.244 59.4738C344.3 60.0658 345.497 60.3621 346.707 60.3315C347.823 60.3671 348.926 60.0803 349.884 59.5055C350.717 58.992 351.389 58.2544 351.822 57.3769H359.701C359.174 59.1008 358.286 60.6928 357.096 62.0472C355.79 63.5139 354.183 64.6819 352.385 65.4714C350.586 66.2609 348.639 66.6534 346.675 66.6221H346.612Z" fill="white"/>
</g>
<defs>
<clipPath id="clip0_1653_32623">
<rect width="360.464" height="89.02" fill="white"/>
</clipPath>
</defs>
</svg>
